<svg xmlns="http://www.w3.org/2000/svg" xml:space="preserve" width="512px" height="512px" version="1.1" style="shape-rendering:geometricPrecision; text-rendering:geometricPrecision; image-rendering:optimizeQuality; fill-rule:evenodd; clip-rule:evenodd" viewBox="0 0 512 512" xmlns:xlink="http://www.w3.org/1999/xlink">
 <defs>
  <style type="text/css">
   
    .fil0 {fill:black}
   
  </style>
 </defs>
 <g id="Layer_x0020_1">
  <metadata id="CorelCorpID_0Corel-Layer"></metadata>
  <g id="_67983272">
   <g>
    <g id="_67983128">
     <path class="fil0" d="M405 318c-3,0 -6,-2 -7,-6 -1,-3 2,-7 6,-7l69 -13c3,0 7,2 8,6 0,4 -2,7 -6,8l-69 12c0,0 -1,0 -1,0z" id="id_101" style="fill: rgb(224, 3, 17);"></path>
    </g>
    <g id="_220258704">
     <path class="fil0" d="M375 353c-2,0 -4,-1 -5,-2l-44 -43c-2,-3 -2,-7 0,-10 3,-2 7,-2 10,0l41 41c8,-1 15,-7 19,-13 3,-6 3,-10 3,-11l-119 -145c-1,0 -1,0 -2,0 -5,0 -20,-1 -24,0l-42 37c-11,10 -32,3 -45,-9 -13,-12 -15,-27 -6,-38l51 -61c2,-3 6,-3 9,-1 3,2 4,7 1,10l-50 61c-6,7 0,15 4,19 10,9 23,12 27,9l42 -38c4,-3 9,-4 33,-3 2,0 4,0 5,0 2,0 4,1 6,3l120 147c5,5 5,14 0,23 -5,11 -17,24 -34,24z" id="id_102" style="fill: rgb(227, 0, 21);"></path>
    </g>
    <g id="_67982840">
     <path class="fil0" d="M342 394c-4,0 -7,-1 -9,-3l-48 -55c-2,-3 -2,-8 1,-10 3,-2 7,-2 10,1l46 54c3,-1 11,-3 18,-10 6,-6 9,-15 8,-24 -1,-4 2,-7 6,-8 3,0 7,3 7,6 3,24 -11,39 -26,46 -3,1 -8,3 -13,3z" id="id_103" style="fill: rgb(230, 5, 20);"></path>
    </g>
    <g id="_220258728">
     <path class="fil0" d="M301 405c-7,0 -14,-2 -18,-7l-51 -46c-3,-3 -3,-7 -1,-10 3,-2 7,-3 10,0l51 46c3,4 9,4 15,2 6,-2 13,-7 14,-16 1,-4 4,-7 8,-6 4,0 6,4 6,8 -2,12 -11,23 -23,27 -4,1 -8,2 -11,2z" id="id_104" style="fill: rgb(230, 3, 18);"></path>
    </g>
    <g id="_220258152">
     <path class="fil0" d="M252 424c-4,0 -8,-2 -11,-4l-28 -20c-3,-2 -4,-7 -1,-10 2,-3 6,-3 9,-1l28 20c2,1 5,1 8,-1 7,-3 14,-13 14,-23 0,-4 3,-7 7,-7 0,0 0,0 0,0 4,0 7,3 7,7 0,16 -11,30 -21,35 -4,2 -9,4 -12,4z" id="id_105" style="fill: rgb(227, 0, 21);"></path>
    </g>
    <g>
     <g id="_67387888">
      <path class="fil0" d="M109 341c-7,0 -14,-3 -19,-8 -4,-5 -7,-11 -7,-18 0,-7 3,-14 7,-18l23 -23c5,-5 12,-8 19,-8 6,0 13,3 18,8 5,5 7,11 7,18 0,7 -2,13 -7,18l-23 23c-5,5 -11,8 -18,8zm23 -61c-4,0 -7,1 -9,3l-23 23c-2,3 -3,6 -3,9 0,3 1,6 3,8 2,3 5,4 9,4 3,0 6,-1 8,-4l23 -22c5,-5 5,-13 0,-18 -2,-2 -5,-3 -8,-3z" id="id_106" style="fill: rgb(224, 3, 17);"></path>
     </g>
     <g id="_67388296">
      <path class="fil0" d="M125 378c-7,0 -13,-3 -18,-8 -5,-5 -8,-11 -8,-18 0,-7 3,-13 8,-18l43 -44c5,-5 12,-7 19,-7 7,0 13,2 18,7 5,5 7,12 7,19 0,6 -2,13 -7,18l-44 43c-4,5 -11,8 -18,8zm44 -82c-4,0 -7,2 -9,4l-43 43c-3,3 -4,6 -4,9 0,3 1,6 4,9 2,2 5,3 8,3 4,0 7,-1 9,-3l43 -44c3,-2 4,-5 4,-8 0,-4 -1,-7 -4,-9 -2,-2 -5,-4 -8,-4z" id="id_107" style="fill: rgb(227, 4, 19);"></path>
     </g>
     <g id="_67387648">
      <path class="fil0" d="M152 405c-7,0 -13,-3 -18,-8 -10,-10 -10,-26 0,-36l43 -44c5,-5 12,-7 18,-7 7,0 14,2 19,7 10,10 10,27 0,37l-44 43c-5,5 -11,8 -18,8zm43 -82c-3,0 -6,1 -8,4l-44 43c-4,5 -4,13 0,17 3,3 6,4 9,4 3,0 6,-1 9,-4l43 -43c5,-5 5,-12 0,-17 -2,-3 -5,-4 -9,-4z" id="id_108" style="fill: rgb(227, 0, 21);"></path>
     </g>
     <g id="_219061640">
      <path class="fil0" d="M189 421c-7,0 -13,-3 -18,-7 -5,-5 -8,-12 -8,-19 0,-7 3,-13 8,-18l23 -23c5,-5 11,-7 18,-7 7,0 13,2 18,7 10,10 10,27 0,37l-23 23c-4,4 -11,7 -18,7zm23 -61c-3,0 -6,2 -9,4l-22 23c-3,2 -4,5 -4,8 0,4 1,7 4,9 2,2 5,3 8,3 3,0 6,-1 9,-3l23 -23c4,-5 4,-12 0,-17 -3,-2 -6,-4 -9,-4z" id="id_109" style="fill: rgb(230, 3, 18);"></path>
     </g>
    </g>
    <g id="_219060080">
     <path class="fil0" d="M474 306c-3,0 -5,-2 -7,-4 -1,-4 1,-8 4,-9 17,-6 27,-22 27,-39l0 -71c0,-23 -17,-42 -40,-42l-40 0c-6,0 -21,-5 -51,-18 -15,-6 -31,-13 -38,-15 -59,-16 -123,3 -179,22 0,0 -1,0 -2,0l-92 0c-12,0 -22,5 -30,13 -8,8 -12,18 -12,29l0 48c0,22 16,40 37,42 27,3 30,5 43,15 4,3 8,6 14,10 3,2 4,6 2,9 -2,4 -7,4 -10,2 -6,-4 -10,-8 -14,-10 -11,-9 -13,-10 -36,-13 -29,-3 -50,-26 -50,-55l0 -48c0,-15 6,-29 16,-39 11,-11 25,-16 40,-16 0,0 0,0 0,0l91 0c57,-20 124,-39 185,-22 8,2 24,9 40,16 17,6 41,16 46,17l40 0c15,0 28,5 38,16 10,10 16,24 16,39l0 71c0,22 -14,43 -36,52 -1,0 -1,0 -2,0z" id="id_110" style="fill: rgb(227, 0, 21);"></path>
    </g>
   </g>
  </g>
 </g>
</svg>